HIERARCHY
ROOT Hips
{
  OFFSET 49.5987 51.6138 -0.118874
  CHANNELS 6 Xposition Yposition Zposition Zrotation Xrotation Yrotation
  JOINT spine
  {
    OFFSET 0 8.30104 0.477351
    CHANNELS 3 Zrotation Xrotation Yrotation
    JOINT spine1
    {
      OFFSET 0 10.4565 0
      CHANNELS 3 Zrotation Xrotation Yrotation
      JOINT spine2
      {
        OFFSET 0 10.0192 0
        CHANNELS 3 Zrotation Xrotation Yrotation
        JOINT Neck
        {
          OFFSET 0 25.7235 1.22641
          CHANNELS 3 Zrotation Xrotation Yrotation
          JOINT Head
          {
            OFFSET 0 7.77175 0
            CHANNELS 3 Zrotation Xrotation Yrotation
            End Site
            {
              OFFSET 0 18.812 -6.20394
            }
          }
        }
        JOINT RightShoulder
        {
          OFFSET -4.2188 10.82 -0.587439
          CHANNELS 3 Zrotation Xrotation Yrotation
          JOINT RightArm
          {
            OFFSET 0 14.1914 0
            CHANNELS 3 Zrotation Xrotation Yrotation
            JOINT RightArmRoll
            {
              OFFSET 0 7.16408 0
              CHANNELS 3 Zrotation Xrotation Yrotation
              JOINT RightForeArm
              {
                OFFSET 0 20.8665 0
                CHANNELS 3 Zrotation Xrotation Yrotation
                JOINT RightForeArmRoll
                {
                  OFFSET 0 8.03921 0
                  CHANNELS 3 Zrotation Xrotation Yrotation
                  JOINT RightHand
                  {
                    OFFSET 0 16.133 0
                    CHANNELS 3 Zrotation Xrotation Yrotation
                    End Site
                    {
                      OFFSET 0 0 0
                    }
                  }
                }
              }
            }
          }
        }
        JOINT LeftShoulder
        {
          OFFSET 4.2188 10.82 -0.587439
          CHANNELS 3 Zrotation Xrotation Yrotation
          JOINT LeftArm
          {
            OFFSET 0 14.1914 0
            CHANNELS 3 Zrotation Xrotation Yrotation
            JOINT LeftArmRoll
            {
              OFFSET 0 7.16408 0
              CHANNELS 3 Zrotation Xrotation Yrotation
              JOINT LeftForeArm
              {
                OFFSET 0 20.8665 0
                CHANNELS 3 Zrotation Xrotation Yrotation
                JOINT LeftForeArmRoll
                {
                  OFFSET 0 8.03921 0
                  CHANNELS 3 Zrotation Xrotation Yrotation
                  JOINT LeftHand
                  {
                    OFFSET 0 16.133 0
                    CHANNELS 3 Zrotation Xrotation Yrotation
                    End Site
                    {
                      OFFSET 0 0 0
                    }
                  }
                }
              }
            }
          }
        }
      }
    }
  }
  JOINT RightUpLeg
  {
    OFFSET -7.35773 -1.34921 -1.13181
    CHANNELS 3 Zrotation Xrotation Yrotation
    JOINT RightUpLegRoll
    {
      OFFSET 0 18.9168 0
      CHANNELS 3 Zrotation Xrotation Yrotation
      JOINT RightLeg
      {
        OFFSET 0 -23.4256 0
        CHANNELS 3 Zrotation Xrotation Yrotation
        JOINT RightLegRoll
        {
          OFFSET 0 23.5023 0
          CHANNELS 3 Zrotation Xrotation Yrotation
          JOINT RightFoot
          {
            OFFSET 0 19.5617 0
            CHANNELS 3 Zrotation Xrotation Yrotation
            JOINT RightToeBase
            {
              OFFSET 0 16.3526 0
              CHANNELS 3 Zrotation Xrotation Yrotation
              End Site
              {
                OFFSET 0.00693125 7.91944 -0.912837
              }
            }
          }
        }
      }
    }
  }
  JOINT LeftUpLeg
  {
    OFFSET 7.35773 -1.34921 -1.13181
    CHANNELS 3 Zrotation Xrotation Yrotation
    JOINT LeftUpLegRoll
    {
      OFFSET 0 18.9169 0
      CHANNELS 3 Zrotation Xrotation Yrotation
      JOINT LeftLeg
      {
        OFFSET 0 23.4255 0
        CHANNELS 3 Zrotation Xrotation Yrotation
        JOINT LeftLegRoll
        {
          OFFSET 0 23.7195 0
          CHANNELS 3 Zrotation Xrotation Yrotation
          JOINT LeftFoot
          {
            OFFSET 0 19.3444 0
            CHANNELS 3 Zrotation Xrotation Yrotation
            JOINT LeftToeBase
            {
              OFFSET 0 16.3526 0
              CHANNELS 3 Zrotation Xrotation Yrotation
              End Site
              {
                OFFSET -0.0310629 7.91943 -0.912837
              }
            }
          }
        }
      }
    }
  }
}
MOTION
Frames: 12
Frame Time: 0.00208333
47.4503 98.8679 33.4038 -0.286393 -3.68507 0.437822 0.124688 -1.18896 0.135213 0.234204 1.61805 0.272792 0.231175 3.26311 0.269034 -0.18979 21.3745 -1.37112 -1.02464 -9.11696 -1.61293 74.2855 -0.634672 -2.08532 95.5691 31.0883 21.8056 1.30022e-006 3.71163e-006 2.69348e-006 7.79906 0.0554537 0.0328707 -8.11838e-006 -3.42696e-007 -3.05326 8.02915 -4.95142 0.69766 -64.6239 1.84664 -0.288997 -101.528 17.7848 -15.1943 -6.97809e-006 4.54926e-007 -7.69524e-007 -8.70886 3.44813 0.868975 -1.87024e-005 3.79908e-006 3.00828 -8.02907 -4.95147 -0.697683 176.284 -1.51361 0.864712 180 7.01536e-015 178.878 176.469 6.03316 179.716 -4.3497e-006 -4.01558e-006 0.0766132 -18.6157 67.8656 19.422 8.12528 25.2333 -3.48296 -173.677 -0.13692 -0.59643 4.54188e-006 -4.6773e-006 -1.23318 -3.14923 -12.5979 0.454768 -4.47574e-006 -5.42053e-006 -0.182405 18.7788 67.9907 -19.5271 -8.13175 25.2329 3.48572 
47.455 98.8731 33.3884 -0.285721 -3.68002 0.445116 0.124577 -1.18393 0.135147 0.235247 1.62862 0.271937 0.23223 3.27367 0.268161 -0.189211 21.3699 -1.37168 -1.02949 -9.12609 -1.61426 74.2728 -0.638796 -2.08589 95.5794 31.0888 21.8134 1.30022e-006 3.71163e-006 2.69348e-006 7.78736 0.0554552 0.0337474 -8.11838e-006 -3.42696e-007 -3.05326 8.02915 -4.95142 0.69766 -64.6211 1.85092 -0.29169 -101.543 17.7898 -15.1891 -6.97809e-006 4.54926e-007 -7.69524e-007 -8.70772 3.44449 0.868348 -1.87024e-005 3.79908e-006 3.00828 -8.02907 -4.95147 -0.697683 176.28 -1.48235 0.865064 180 7.01536e-015 178.878 176.47 6.05849 179.716 -4.3497e-006 -4.01558e-006 0.076558 -18.62 67.8707 19.4266 8.12528 25.2333 -3.48296 -173.674 -0.105027 -0.60456 4.54188e-006 -4.6773e-006 -1.23323 -3.1567 -12.6162 0.45363 -4.47574e-006 -5.42053e-006 -0.182548 18.7692 67.9792 -19.5166 -8.13175 25.2329 3.48572 
47.4549 98.8685 33.3639 -0.284848 -3.67487 0.452675 0.124374 -1.17901 0.135055 0.236155 1.639 0.271026 0.23315 3.28405 0.267233 -0.187716 21.3644 -1.37237 -1.03514 -9.1339 -1.61554 74.2605 -0.643095 -2.08657 95.5894 31.0892 21.8209 1.30022e-006 3.71163e-006 2.69348e-006 7.77614 0.0554567 0.0346311 -8.11838e-006 -3.42696e-007 -3.05326 8.02915 -4.95142 0.69766 -64.6179 1.85538 -0.294528 -101.558 17.7949 -15.1845 -6.97809e-006 4.54926e-007 -7.69524e-007 -8.70597 3.44056 0.867677 -1.87024e-005 3.79908e-006 3.00828 -8.02907 -4.95147 -0.697683 176.276 -1.45149 0.866446 180 7.01536e-015 178.878 176.469 6.08278 179.716 -4.3497e-006 -4.01558e-006 0.0764758 -18.6245 67.8761 19.4315 8.12528 25.2333 -3.48296 -173.672 -0.0738237 -0.612412 4.54188e-006 -4.6773e-006 -1.23329 -3.16418 -12.6331 0.452522 -4.47574e-006 -5.42053e-006 -0.182676 18.7591 67.9672 -19.5056 -8.13175 25.2329 3.48572 
47.4525 98.8687 33.3436 -0.283835 -3.66963 0.46042 0.124108 -1.17415 0.134944 0.236968 1.64925 0.270074 0.233977 3.29431 0.266266 -0.185582 21.3583 -1.37314 -1.04134 -9.14078 -1.61677 74.2484 -0.647516 -2.08733 95.5991 31.0895 21.8283 1.30022e-006 3.71163e-006 2.69348e-006 7.76525 0.0554581 0.0355198 -8.11838e-006 -3.42696e-007 -3.05326 8.02915 -4.95142 0.69766 -64.6145 1.85995 -0.297468 -101.574 17.8 -15.1803 -6.97809e-006 4.54926e-007 -7.69524e-007 -8.70381 3.43642 0.866976 -1.87024e-005 3.79908e-006 3.00828 -8.02907 -4.95147 -0.697683 176.271 -1.42091 0.868547 180 7.01536e-015 178.878 176.468 6.10637 179.717 -4.3497e-006 -4.01558e-006 0.0763748 -18.6292 67.8818 19.4365 8.12528 25.2333 -3.48296 -173.671 -0.0431029 -0.620067 4.54188e-006 -4.6773e-006 -1.23337 -3.17166 -12.6491 0.451434 -4.47574e-006 -5.42053e-006 -0.182796 18.7488 67.9549 -19.4943 -8.13175 25.2329 3.48572 
47.4536 98.8609 33.3255 -0.282741 -3.66435 0.468271 0.123804 -1.16934 0.134822 0.237728 1.65943 0.269099 0.23475 3.30449 0.265278 -0.183081 21.3518 -1.37395 -1.04786 -9.14714 -1.61799 74.2364 -0.652008 -2.08813 95.6086 31.0898 21.8355 1.30022e-006 3.71163e-006 2.69348e-006 7.75455 0.0554596 0.0364112 -8.11838e-006 -3.42696e-007 -3.05326 8.02915 -4.95142 0.69766 -64.6109 1.86459 -0.300465 -101.59 17.8051 -15.1764 -6.97809e-006 4.54926e-007 -7.69524e-007 -8.70141 3.43217 0.866258 -1.87024e-005 3.79908e-006 3.00828 -8.02907 -4.95147 -0.697683 176.266 -1.39049 0.87106 180 7.01536e-015 178.878 176.466 6.12953 179.718 -4.3497e-006 -4.01558e-006 0.076263 -18.6339 67.8875 19.4417 8.12528 25.2333 -3.48296 -173.669 -0.0126577 -0.627612 4.54188e-006 -4.6773e-006 -1.23346 -3.17915 -12.6644 0.450359 -4.47574e-006 -5.42053e-006 -0.182909 18.7383 67.9424 -19.4829 -8.13175 25.2329 3.48572 
47.4608 98.8642 33.306 -0.28163 -3.65906 0.476149 0.123492 -1.16454 0.134697 0.238475 1.66959 0.268119 0.235511 3.31465 0.264284 -0.18049 21.3452 -1.37478 -1.05446 -9.15335 -1.6192 74.2245 -0.656516 -2.08895 95.6181 31.09 21.8427 1.30022e-006 3.71163e-006 2.69348e-006 7.7439 0.055461 0.0373034 -8.11838e-006 -3.42696e-007 -3.05326 8.02915 -4.95142 0.69766 -64.6073 1.86924 -0.303476 -101.606 17.8103 -15.1725 -6.97809e-006 4.54926e-007 -7.69524e-007 -8.69894 3.42788 0.865535 -1.87024e-005 3.79908e-006 3.00828 -8.02907 -4.95147 -0.697683 176.261 -1.36011 0.873676 180 7.01536e-015 178.878 176.464 6.15259 179.718 -4.3497e-006 -4.01558e-006 0.0761485 -18.6387 67.8932 19.4469 8.12528 25.2333 -3.48296 -173.668 0.0177185 -0.635128 4.54188e-006 -4.6773e-006 -1.23355 -3.18664 -12.6797 0.449287 -4.47574e-006 -5.42053e-006 -0.183021 18.7278 67.9298 -19.4714 -8.13175 25.2329 3.48572 
47.4628 98.8638 33.2798 -0.28056 -3.65379 0.483973 0.123197 -1.15971 0.134577 0.23925 1.67979 0.26715 0.236298 3.32485 0.2633 -0.178081 21.3388 -1.37559 -1.0609 -9.15984 -1.62043 74.2125 -0.66099 -2.08974 95.6277 31.0903 21.85 1.30022e-006 3.71163e-006 2.69348e-006 7.73316 0.0554624 0.0381942 -8.11838e-006 -3.42696e-007 -3.05326 8.02915 -4.95142 0.69766 -64.6037 1.87386 -0.306459 -101.621 17.8154 -15.1685 -6.97809e-006 4.54926e-007 -7.69524e-007 -8.6966 3.42365 0.864821 -1.87024e-005 3.79908e-006 3.00828 -8.02907 -4.95147 -0.697683 176.255 -1.32965 0.876087 180 7.01536e-015 178.878 176.463 6.17586 179.719 -4.3497e-006 -4.01558e-006 0.0760395 -18.6434 67.8989 19.452 8.12528 25.2333 -3.48296 -173.666 0.0482324 -0.642701 4.54188e-006 -4.6773e-006 -1.23363 -3.19412 -12.6952 0.448208 -4.47574e-006 -5.42053e-006 -0.183136 18.7174 67.9174 -19.46 -8.13175 25.2329 3.48572 
47.4624 98.8541 33.26 -0.279592 -3.64857 0.491665 0.122949 -1.15484 0.134472 0.240092 1.69008 0.26621 0.237153 3.33514 0.262345 -0.17613 21.3328 -1.37633 -1.06695 -9.16698 -1.62168 74.2004 -0.665377 -2.09048 95.6375 31.0906 21.8574 1.30022e-006 3.71163e-006 2.69348e-006 7.72218 0.0554639 0.0390814 -8.11838e-006 -3.42696e-007 -3.05326 8.02915 -4.95142 0.69766 -64.6003 1.8784 -0.309369 -101.637 17.8205 -15.1642 -6.97809e-006 4.54926e-007 -7.69524e-007 -8.69456 3.41957 0.864129 -1.87024e-005 3.79908e-006 3.00828 -8.02907 -4.95147 -0.697683 176.251 -1.29899 0.877983 180 7.01536e-015 178.878 176.462 6.19965 179.72 -4.3497e-006 -4.01558e-006 0.0759438 -18.6481 67.9045 19.457 8.12528 25.2333 -3.48296 -173.664 0.0790907 -0.650413 4.54188e-006 -4.6773e-006 -1.23371 -3.20161 -12.7114 0.447114 -4.47574e-006 -5.42053e-006 -0.183258 18.7072 67.9052 -19.4488 -8.13175 25.2329 3.48572 
47.4688 98.8532 33.2395 -0.278788 -3.64345 0.499144 0.122774 -1.14988 0.134387 0.241042 1.70052 0.265315 0.238116 3.34558 0.261433 -0.174911 21.3276 -1.37698 -1.07235 -9.17519 -1.62297 74.1879 -0.669623 -2.09113 95.6475 31.091 21.865 1.30022e-006 3.71163e-006 2.69348e-006 7.71081 0.0554654 0.039963 -8.11838e-006 -3.42696e-007 -3.05326 8.02915 -4.95142 0.69766 -64.5973 1.8828 -0.312164 -101.652 17.8256 -15.1594 -6.97809e-006 4.54926e-007 -7.69524e-007 -8.693 3.41573 0.863472 -1.87024e-005 3.79908e-006 3.00828 -8.02907 -4.95147 -0.697683 176.247 -1.26801 0.879057 180 7.01536e-015 178.878 176.461 6.22425 179.72 -4.3497e-006 -4.01558e-006 0.0758698 -18.6525 67.9098 19.4618 8.12528 25.2333 -3.48296 -173.662 0.1105 -0.658349 4.54188e-006 -4.6773e-006 -1.23377 -3.20909 -12.7287 0.445996 -4.47574e-006 -5.42053e-006 -0.183391 18.6973 67.8933 -19.438 -8.13175 25.2329 3.48572 
47.4754 98.8525 33.2194 -0.278208 -3.63845 0.50633 0.1227 -1.14482 0.134333 0.242141 1.71116 0.264483 0.239227 3.35622 0.260582 -0.174699 21.3233 -1.3775 -1.07689 -9.18486 -1.62432 74.1751 -0.673677 -2.09164 95.6581 31.0916 21.8729 1.30022e-006 3.71163e-006 2.69348e-006 7.69892 0.0554669 0.0408369 -8.11838e-006 -3.42696e-007 -3.05326 8.02915 -4.95142 0.69766 -64.5947 1.88702 -0.3148 -101.667 17.8306 -15.1539 -6.97809e-006 4.54926e-007 -7.69524e-007 -8.6921 3.41221 0.862862 -1.87024e-005 3.79908e-006 3.00828 -8.02907 -4.95147 -0.697683 176.243 -1.2366 0.879 180 7.01536e-015 178.878 176.462 6.24999 179.72 -4.3497e-006 -4.01558e-006 0.0758253 -18.6567 67.9149 19.4663 8.12528 25.2333 -3.48296 -173.66 0.142668 -0.666592 4.54188e-006 -4.6773e-006 -1.2338 -3.21657 -12.7476 0.444845 -4.47574e-006 -5.42053e-006 -0.18354 18.6879 67.882 -19.4278 -8.13175 25.2329 3.48572 
47.4788 98.8497 33.1862 -0.277911 -3.63362 0.513145 0.122754 -1.13961 0.134316 0.24343 1.72205 0.263732 0.240526 3.36711 0.259808 -0.175767 21.3203 -1.37786 -1.08031 -9.19637 -1.62574 74.1617 -0.677485 -2.092 95.6691 31.0923 21.8812 1.30022e-006 3.71163e-006 2.69348e-006 7.68635 0.0554686 0.0417009 -8.11838e-006 -3.42696e-007 -3.05326 8.02915 -4.95142 0.69766 -64.5926 1.89101 -0.317233 -101.682 17.8355 -15.1475 -6.97809e-006 4.54926e-007 -7.69524e-007 -8.69204 3.40911 0.862313 -1.87024e-005 3.79908e-006 3.00828 -8.02907 -4.95147 -0.697683 176.241 -1.20463 0.877503 180 7.01536e-015 178.878 176.465 6.27718 179.72 -4.3497e-006 -4.01558e-006 0.0758186 -18.6606 67.9195 19.4705 8.12528 25.2333 -3.48296 -173.657 0.175799 -0.675227 4.54188e-006 -4.6773e-006 -1.23381 -3.22404 -12.7685 0.443651 -4.47574e-006 -5.42053e-006 -0.183708 18.679 67.8713 -19.4181 -8.13175 25.2329 3.48572 
47.4804 98.8504 33.1672 -0.27796 -3.62897 0.519509 0.122964 -1.13424 0.134345 0.244948 1.73325 0.263077 0.242054 3.37831 0.259127 -0.178391 21.3188 -1.37801 -1.08237 -9.21015 -1.62725 74.1478 -0.680997 -2.09216 95.6808 31.0932 21.89 1.30022e-006 3.71163e-006 2.69348e-006 7.67297 0.0554703 0.042553 -8.11838e-006 -3.42696e-007 -3.05326 8.02915 -4.95142 0.69766 -64.5912 1.8947 -0.31942 -101.696 17.8403 -15.1401 -6.97809e-006 4.54926e-007 -7.69524e-007 -8.693 3.40651 0.861838 -1.87024e-005 3.79908e-006 3.00828 -8.02907 -4.95147 -0.697683 176.241 -1.17198 0.874259 180 7.01536e-015 178.878 176.47 6.30611 179.72 -4.3497e-006 -4.01558e-006 0.0758576 -18.6641 67.9237 19.4743 8.12528 25.2333 -3.48296 -173.653 0.210103 -0.684337 4.54188e-006 -4.6773e-006 -1.23378 -3.2315 -12.7918 0.442406 -4.47574e-006 -5.42053e-006 -0.1839 18.6708 67.8614 -19.4093 -8.13175 25.2329 3.48572 
